<svg width="14" height="14" viewBox="0 0 14 14" fill="currentColor" xmlns="http://www.w3.org/2000/svg">
<g id="Agenda">
<path id="Icon" clip-rule="evenodd" d="M12.5192 5.38467H1.48077C1.26538 5.38467 1.07692 5.57313 1.07692 5.78851V12.3846C1.07692 12.9769 1.56154 13.4615 2.15384 13.4615H11.8462C12.4385 13.4615 12.9231 12.9769 12.9231 12.3846V5.78851C12.9231 5.57313 12.7346 5.38467 12.5192 5.38467ZM5.1155 11.3074C5.1155 11.469 5.00781 11.5767 4.84627 11.5767H3.76934C3.60781 11.5767 3.50011 11.469 3.50011 11.3074V10.2305C3.50011 10.069 3.60781 9.9613 3.76934 9.9613H4.84627C5.00781 9.9613 5.1155 10.069 5.1155 10.2305V11.3074ZM5.1155 8.61537C5.1155 8.7769 5.00781 8.88459 4.84627 8.88459H3.76934C3.60781 8.88459 3.50011 8.7769 3.50011 8.61537V7.53845C3.50011 7.37691 3.60781 7.26922 3.76934 7.26922H4.84627C5.00781 7.26922 5.1155 7.37691 5.1155 7.53845V8.61537ZM7.80772 11.3074C7.80772 11.469 7.70003 11.5767 7.53849 11.5767H6.46157C6.30003 11.5767 6.19234 11.469 6.19234 11.3074V10.2305C6.19234 10.069 6.30003 9.9613 6.46157 9.9613H7.53849C7.70003 9.9613 7.80772 10.069 7.80772 10.2305V11.3074ZM7.80772 8.61537C7.80772 8.7769 7.70003 8.88459 7.53849 8.88459H6.46157C6.30003 8.88459 6.19234 8.7769 6.19234 8.61537V7.53845C6.19234 7.37691 6.30003 7.26922 6.46157 7.26922H7.53849C7.70003 7.26922 7.80772 7.37691 7.80772 7.53845V8.61537ZM10.4999 11.3074C10.4999 11.469 10.3923 11.5767 10.2307 11.5767H9.15379C8.99225 11.5767 8.88456 11.469 8.88456 11.3074V10.2305C8.88456 10.069 8.99225 9.9613 9.15379 9.9613H10.2307C10.3923 9.9613 10.4999 10.069 10.4999 10.2305V11.3074ZM10.4999 8.61537C10.4999 8.7769 10.3923 8.88459 10.2307 8.88459H9.15379C8.99225 8.88459 8.88456 8.7769 8.88456 8.61537V7.53845C8.88456 7.37691 8.99225 7.26922 9.15379 7.26922H10.2307C10.3923 7.26922 10.4999 7.37691 10.4999 7.53845V8.61537ZM11.8462 1.8846H10.5V1.34614C10.5 0.915372 10.15 0.538452 9.6923 0.538452C9.26154 0.538452 8.88461 0.88845 8.88461 1.34614V1.8846H5.11538V1.34614C5.11538 0.915372 4.76538 0.538452 4.30769 0.538452C3.87692 0.538452 3.5 0.88845 3.5 1.34614V1.8846H2.15384C1.56153 1.8846 1.07692 2.36921 1.07692 2.96151V3.63458C1.07692 3.84997 1.26538 4.03843 1.48077 4.03843H12.5192C12.7346 4.03843 12.9231 3.84997 12.9231 3.63458V2.96151C12.9231 2.36921 12.4385 1.8846 11.8462 1.8846Z" fill="currentColor"/>
</g>
</svg>
