<svg width="16" height="16" viewBox="0 0 16 16" fill="none" xmlns="http://www.w3.org/2000/svg">
    <g id = 'Calendary'>
        <path d="M15.1998 5.86667H1.33314C1.0398 5.86667 0.799805 6.10667 0.799805 6.4V14.4C0.799805 15.28 1.5198 16 2.3998 16H14.1331C15.0131 16 15.7331 15.28 15.7331 14.4V6.4C15.7331 6.10667 15.4931 5.86667 15.1998 5.86667ZM5.5998 13.3333C5.5998 13.6267 5.3598 13.8667 5.06647 13.8667H3.9998C3.70647 13.8667 3.46647 13.6267 3.46647 13.3333V12.2667C3.46647 11.9733 3.70647 11.7333 3.9998 11.7333H5.06647C5.3598 11.7333 5.5998 11.9733 5.5998 12.2667V13.3333ZM9.33314 13.3333C9.33314 13.6267 9.09314 13.8667 8.7998 13.8667H7.73314C7.4398 13.8667 7.1998 13.6267 7.1998 13.3333V12.2667C7.1998 11.9733 7.4398 11.7333 7.73314 11.7333H8.7998C9.09314 11.7333 9.33314 11.9733 9.33314 12.2667V13.3333ZM9.33314 9.6C9.33314 9.89333 9.09314 10.1333 8.7998 10.1333H7.73314C7.4398 10.1333 7.1998 9.89333 7.1998 9.6V8.53333C7.1998 8.24 7.4398 8 7.73314 8H8.7998C9.09314 8 9.33314 8.24 9.33314 8.53333V9.6ZM13.0665 9.6C13.0665 9.89333 12.8265 10.1333 12.5331 10.1333H11.4665C11.1731 10.1333 10.9331 9.89333 10.9331 9.6V8.53333C10.9331 8.24 11.1731 8 11.4665 8H12.5331C12.8265 8 13.0665 8.24 13.0665 8.53333V9.6ZM14.1331 1.6H12.7998V1.06667C12.7998 0.48 12.3198 0 11.7331 0C11.1465 0 10.6665 0.48 10.6665 1.06667V1.6H5.86647V1.06667C5.86647 0.48 5.38647 0 4.7998 0C4.21314 0 3.73314 0.48 3.73314 1.06667V1.6H2.3998C1.5198 1.6 0.799805 2.32 0.799805 3.2V3.73333C0.799805 4.02667 1.0398 4.26667 1.33314 4.26667H15.1998C15.4931 4.26667 15.7331 4.02667 15.7331 3.73333V3.2C15.7331 2.32 15.0131 1.6 14.1331 1.6Z" fill="white"/>
    </g>
</svg>
