<svg width="24" height="20" viewBox="0 0 24 20" fill="none" xmlns="http://www.w3.org/2000/svg">
<path id="Icon" fill-rule="evenodd" clip-rule="evenodd" d="M11.9999 7.23066C9.96913 7.23066 8.30759 8.8922 8.30759 10.923C8.30759 12.9537 9.96913 14.6153 11.9999 14.6153C14.0307 14.6153 15.6922 12.9537 15.6922 10.923C15.6922 8.8922 14.0307 7.23066 11.9999 7.23066ZM21.2308 4.4616H18.8308C18.1846 4.4616 17.6308 4.13852 17.2615 3.63083L16.2 2.01544C15.8769 1.23083 15.0923 0.769287 14.2615 0.769287H9.73847C8.9077 0.769287 8.12308 1.23083 7.75385 2.01544L6.69231 3.63083C6.36924 4.13852 5.76924 4.4616 5.12308 4.4616H2.76923C1.75385 4.4616 0.92308 5.29236 0.92308 6.30775V17.3847C0.92308 18.4001 1.75385 19.2308 2.76923 19.2308H21.2308C22.2462 19.2308 23.0769 18.4001 23.0769 17.3847V6.30775C23.0769 5.29236 22.2462 4.4616 21.2308 4.4616ZM12.0001 16.4619C8.95392 16.4619 6.46161 13.9696 6.46161 10.9234C6.46161 7.87728 8.95392 5.38498 12.0001 5.38498C15.0462 5.38498 17.5385 7.87728 17.5385 10.9234C17.5385 13.9696 15.0462 16.4619 12.0001 16.4619Z" fill="#747474"/>
</svg>
