<svg width="18" height="14" viewBox="0 0 18 14" fill="none" xmlns="http://www.w3.org/2000/svg">
    <g id = "CampaignWhite">    
        <path d="M14.0013 7.83399V6.16732H17.3346V7.83399H14.0013ZM15.0013 13.6673L12.3346 11.6673L13.3346 10.334L16.0013 12.334L15.0013 13.6673ZM13.3346 3.66732L12.3346 2.33398L15.0013 0.333984L16.0013 1.66732L13.3346 3.66732ZM3.16797 12.834V9.50065H2.33464C1.8763 9.50065 1.48394 9.33746 1.15755 9.01107C0.831163 8.68468 0.667969 8.29232 0.667969 7.83399V6.16732C0.667969 5.70899 0.831163 5.31662 1.15755 4.99024C1.48394 4.66385 1.8763 4.50065 2.33464 4.50065H5.66797L9.83463 2.00065V12.0007L5.66797 9.50065H4.83463V12.834H3.16797ZM8.16797 9.04232V4.95899L6.1263 6.16732H2.33464V7.83399H6.1263L8.16797 9.04232ZM10.668 9.79232V4.20899C11.043 4.54232 11.3451 4.94857 11.5742 5.42774C11.8034 5.9069 11.918 6.43121 11.918 7.00065C11.918 7.5701 11.8034 8.0944 11.5742 8.57357C11.3451 9.05274 11.043 9.45899 10.668 9.79232Z" fill="white"/>
    </g>
</svg>
