<svg width="25" height="24" viewBox="0 0 25 24" fill="none" xmlns="http://www.w3.org/2000/svg">
<g id="Cart">
<path id="Icon" fill-rule="evenodd" clip-rule="evenodd" d="M9.61033 12H20.6411C20.9642 12 21.2873 11.7692 21.3334 11.4462L23.3642 4.33846C23.5026 3.83077 23.1334 3.41538 22.6719 3.41538H5.6411L5.36417 2.35384C5.22571 1.84615 4.76417 1.52307 4.30263 1.52307H2.45648C1.85648 1.52307 1.30263 1.98461 1.25648 2.58461C1.21033 3.23077 1.76417 3.78461 2.36417 3.78461H3.42571L6.9334 15.6462C7.07187 16.1539 7.48725 16.4769 7.99494 16.4769H21.0103C21.6103 16.4769 22.1642 16.0154 22.2103 15.4154C22.2565 14.7692 21.7026 14.2154 21.1026 14.2154H9.65648C9.14879 14.2154 8.7334 13.8923 8.59494 13.4308V13.3846C8.36417 12.6923 8.91802 12 9.61033 12ZM9.84115 22.4308C10.8608 22.4308 11.6873 21.6042 11.6873 20.5846C11.6873 19.565 10.8608 18.7385 9.84115 18.7385C8.82155 18.7385 7.995 19.565 7.995 20.5846C7.995 21.6042 8.82155 22.4308 9.84115 22.4308ZM20.6872 20.5846C20.6872 21.6042 19.8606 22.4308 18.841 22.4308C17.8214 22.4308 16.9949 21.6042 16.9949 20.5846C16.9949 19.565 17.8214 18.7385 18.841 18.7385C19.8606 18.7385 20.6872 19.565 20.6872 20.5846Z" fill="currentColor"/>
</g>
</svg>
