<svg width="16" height="14" viewBox="0 0 16 14" fill="none" xmlns="http://www.w3.org/2000/svg">
<path id="Icon" fill-rule="evenodd" clip-rule="evenodd" d="M14.7076 8.53856C14.6768 8.41548 14.6768 8.29241 14.7384 8.16933C15.1384 7.46163 15.3845 6.66162 15.3845 5.80008C15.3845 3.09236 13.0461 0.876953 10.1537 0.876953C8.79988 0.876953 7.5691 1.36927 6.64601 2.16927C9.81527 2.53851 12.3076 5.12315 12.3076 8.26164C12.3076 9.03087 12.1538 9.76934 11.8768 10.4463C12.2153 10.3232 12.5538 10.1693 12.8614 10.0155C12.9845 9.95396 13.1076 9.92319 13.2307 9.98473L15.1076 10.7232C15.2922 10.7847 15.4461 10.6309 15.3845 10.4463L14.7076 8.53856ZM5.8462 3.3384C2.95387 3.3384 0.61539 5.55381 0.61539 8.26153C0.61539 9.12307 0.861546 9.92308 1.26155 10.6308C1.32309 10.7539 1.35386 10.8769 1.29232 11L0.61539 12.877C0.553851 13.0616 0.707698 13.2154 0.892315 13.1539L2.76925 12.4154C2.89233 12.3846 3.01541 12.3846 3.13849 12.4462C3.93849 12.9077 4.86158 13.1539 5.8462 13.1539C8.73853 13.1539 11.077 10.9385 11.077 8.23076C11.077 5.55381 8.73853 3.3384 5.8462 3.3384Z" fill="#013241"/>
</svg>
