<svg width="37" height="37" viewBox="0 0 37 37" fill="none" xmlns="http://www.w3.org/2000/svg">
<g id="Utility Icons / E / error">
<path id="Icon" fill-rule="evenodd" clip-rule="evenodd" d="M18.4276 1.4231C9.13374 1.4231 1.52966 9.02718 1.52966 18.3211C1.52966 27.6149 9.13374 35.219 18.4276 35.219C27.7215 35.219 35.3256 27.6149 35.3256 18.3211C35.3256 9.02718 27.7215 1.4231 18.4276 1.4231ZM5.75402 18.3208C5.75402 11.3504 11.4571 5.64737 18.4275 5.64737C21.1734 5.64737 23.7081 6.49227 25.7499 7.97084L8.07749 25.6433C6.59891 23.6015 5.75402 21.0668 5.75402 18.3208V18.3208ZM18.4275 30.9948C15.6816 30.9948 13.1469 30.1499 11.1051 28.6713L28.7775 10.9989C30.2561 13.0407 31.101 15.5754 31.101 18.3213C31.101 25.2917 25.3979 30.9948 18.4275 30.9948Z" fill="currentColor"/>
</g>
</svg>
