<svg width="14" height="14" viewBox="0 0 14 14" fill="none" xmlns="http://www.w3.org/2000/svg">
<g id="Icon">
<path id="Icon_2" fill-rule="evenodd" clip-rule="evenodd" d="M8.34667 6.83848L11.8467 3.31156C12.0082 3.15002 12.0082 2.90771 11.8467 2.74618L11.3082 2.18079C11.1467 2.01925 10.9044 2.01925 10.7428 2.18079L7.2159 5.70772C7.1082 5.81541 6.94666 5.81541 6.83897 5.70772L3.31205 2.15387C3.15051 1.99233 2.9082 1.99233 2.74666 2.15387L2.18128 2.71925C2.01974 2.88079 2.01974 3.1231 2.18128 3.28464L5.7082 6.81156C5.8159 6.91925 5.8159 7.08079 5.7082 7.18848L2.15436 10.7423C1.99282 10.9039 1.99282 11.1462 2.15436 11.3077L2.71974 11.8731C2.88128 12.0346 3.12359 12.0346 3.28513 11.8731L6.81205 8.34618C6.91974 8.23848 7.08128 8.23848 7.18897 8.34618L10.7159 11.8731C10.8774 12.0346 11.1197 12.0346 11.2813 11.8731L11.8467 11.3077C12.0082 11.1462 12.0082 10.9039 11.8467 10.7423L8.34667 7.21541C8.23897 7.10772 8.23897 6.94618 8.34667 6.83848Z" fill="currentColor"/>
</g>
</svg>
