<svg width="36" height="36" viewBox="0 0 36 36" fill="none" xmlns="http://www.w3.org/2000/svg">
<rect width="36" height="36" rx="18" fill="currentColor"/>
<path d="M23.9077 12.8H12.0923C11.28 12.8 10.6154 13.4647 10.6154 14.277V21.4154C10.6154 22.2277 11.28 22.8924 12.0923 22.8924H23.9077C24.72 22.8924 25.3846 22.2277 25.3846 21.4154V14.277C25.3846 13.4647 24.72 12.8 23.9077 12.8ZM17.6554 21.1693H13.4215C12.9538 21.1693 12.5846 20.6524 12.5846 20.16C12.6092 19.4216 13.3723 18.9785 14.1846 18.6093C14.7508 18.3631 14.8246 18.1416 14.8246 17.8954C14.8246 17.6493 14.6769 17.4277 14.48 17.2554C14.16 16.96 13.9631 16.517 13.9631 16.0247C13.9631 15.0893 14.5292 14.3016 15.5138 14.3016C16.4985 14.3016 17.0646 15.0893 17.0646 16.0247C17.0646 16.517 16.8923 16.96 16.5477 17.2554C16.3508 17.4277 16.2031 17.6493 16.2031 17.8954C16.2031 18.1416 16.2769 18.3631 16.8431 18.5847C17.6554 18.9293 18.4185 19.4216 18.4431 20.16C18.4923 20.6524 18.1231 21.1693 17.6554 21.1693ZM23.4154 19.4462C23.4154 19.717 23.1938 19.9385 22.9231 19.9385H20.7077C20.4369 19.9385 20.2154 19.717 20.2154 19.4462V18.7077C20.2154 18.437 20.4369 18.2154 20.7077 18.2154H22.9231C23.1938 18.2154 23.4154 18.437 23.4154 18.7077V19.4462ZM23.4154 16.7385C23.4154 17.0093 23.1938 17.2308 22.9231 17.2308H19.2308C18.96 17.2308 18.7385 17.0093 18.7385 16.7385V16C18.7385 15.7293 18.96 15.5077 19.2308 15.5077H22.9231C23.1938 15.5077 23.4154 15.7293 23.4154 16V16.7385Z" fill="white"/>
</svg>
