<svg width="24" height="24" viewBox="0 0 24 24" fill="none" xmlns="http://www.w3.org/2000/svg">
<g id="Delete">
<path id="Icon" fill-rule="evenodd" clip-rule="evenodd" d="M21.0009 4.61538H15.2317V2.76924C15.2317 1.75386 14.4009 0.923096 13.3855 0.923096H10.6163C9.6009 0.923096 8.77013 1.75386 8.77013 2.76924V4.61538H3.0009C2.63167 4.61538 2.30859 4.93845 2.30859 5.30768V6.69228C2.30859 7.06151 2.63167 7.38459 3.0009 7.38459H21.0009C21.3701 7.38459 21.6932 7.06151 21.6932 6.69228V5.30768C21.6932 4.93845 21.3701 4.61538 21.0009 4.61538ZM10.6164 3.2303C10.6164 2.95338 10.801 2.76876 11.0779 2.76876H12.9241C13.201 2.76876 13.3856 2.95338 13.3856 3.2303V4.6149H10.6164V3.2303ZM19.1546 9.2309H4.84688C4.47765 9.2309 4.15457 9.55397 4.15457 9.9232V20.7693C4.15457 22.0616 5.16996 23.0769 6.46226 23.0769H17.5392C18.8315 23.0769 19.8469 22.0616 19.8469 20.7693V9.9232C19.8469 9.55397 19.5238 9.2309 19.1546 9.2309ZM10.6163 19.3846C10.6163 19.6615 10.4317 19.8461 10.1547 19.8461H9.23165C8.95473 19.8461 8.77011 19.6615 8.77011 19.3846V12.9231C8.77011 12.6462 8.95473 12.4616 9.23165 12.4616H10.1547C10.4317 12.4616 10.6163 12.6462 10.6163 12.9231V19.3846ZM15.2315 19.3846C15.2315 19.6615 15.0469 19.8461 14.77 19.8461H13.8469C13.57 19.8461 13.3854 19.6615 13.3854 19.3846V12.9231C13.3854 12.6462 13.57 12.4616 13.8469 12.4616H14.77C15.0469 12.4616 15.2315 12.6462 15.2315 12.9231V19.3846Z" fill="currentColor"/>
</g>
</svg>
