<svg width="22" height="22" viewBox="0 0 22 22" fill="none" xmlns="http://www.w3.org/2000/svg">
<g id="Dots Vertical">
<path id="Icon" fill-rule="evenodd" clip-rule="evenodd" d="M8.46094 18.6153C8.46094 17.2191 9.60325 16.0768 10.9994 16.0768C12.3956 16.0768 13.5379 17.2191 13.5379 18.6153C13.5379 20.0114 12.3956 21.1537 10.9994 21.1537C9.60325 21.1537 8.46094 20.0114 8.46094 18.6153ZM8.46094 10.9984C8.46094 9.60227 9.60325 8.45996 10.9994 8.45996C12.3956 8.45996 13.5379 9.60227 13.5379 10.9984C13.5379 12.3946 12.3956 13.5369 10.9994 13.5369C9.60325 13.5369 8.46094 12.3946 8.46094 10.9984ZM8.46094 3.3846C8.46094 1.98844 9.60325 0.84613 10.9994 0.84613C12.3956 0.84613 13.5379 1.98844 13.5379 3.3846C13.5379 4.78075 12.3956 5.92306 10.9994 5.92306C9.60325 5.92306 8.46094 4.78075 8.46094 3.3846Z" fill="currentColor"/>
</g>
</svg>
