<svg width="16" height="16" viewBox="0 0 16 16" fill="none" xmlns="http://www.w3.org/2000/svg">
<g id="Dots Vertical">
<path id="Icon" fill-rule="evenodd" clip-rule="evenodd" d="M6.15387 13.5382C6.15387 12.5229 6.98464 11.6921 8.00002 11.6921C9.01541 11.6921 9.84618 12.5229 9.84618 13.5382C9.84618 14.5536 9.01541 15.3844 8.00002 15.3844C6.98464 15.3844 6.15387 14.5536 6.15387 13.5382ZM6.15387 7.99872C6.15387 6.98333 6.98464 6.15256 8.00002 6.15256C9.01541 6.15256 9.84618 6.98333 9.84618 7.99872C9.84618 9.0141 9.01541 9.84488 8.00002 9.84488C6.98464 9.84488 6.15387 9.0141 6.15387 7.99872ZM6.15387 2.46139C6.15387 1.446 6.98464 0.615234 8.00002 0.615234C9.01541 0.615234 9.84618 1.446 9.84618 2.46139C9.84618 3.47678 9.01541 4.30755 8.00002 4.30755C6.98464 4.30755 6.15387 3.47678 6.15387 2.46139Z" fill="currentColor"/>
</g>
</svg>
