<svg width="24" height="24" viewBox="0 0 24 24" fill="none" xmlns="http://www.w3.org/2000/svg">
<g id="Edit">
<path id="Icon" fill-rule="evenodd" clip-rule="evenodd" d="M4.38435 15.4153L8.49206 19.523C8.67668 19.7076 8.9536 19.7076 9.13822 19.523L19.3844 9.23068C19.569 9.04606 19.569 8.76914 19.3844 8.58452L15.3229 4.52299C15.1382 4.33837 14.8613 4.33837 14.6767 4.52299L4.38435 14.8153C4.19974 14.9999 4.19974 15.2768 4.38435 15.4153ZM16.6613 2.63079C16.4767 2.8154 16.4767 3.09233 16.6613 3.27694L20.7229 7.33848C20.9075 7.52309 21.1844 7.52309 21.369 7.33848L22.5229 6.18463C23.2613 5.49233 23.2613 4.38463 22.5229 3.64617L20.3536 1.47694C19.6152 0.73848 18.4613 0.73848 17.7229 1.47694L16.6613 2.63079ZM0.969012 22.2461C0.876704 22.7077 1.29209 23.1231 1.75363 23.0308L6.78442 21.8308C6.96904 21.7846 7.1075 21.6923 7.19981 21.6L7.29212 21.5077C7.38442 21.4154 7.43058 21.0923 7.24596 20.9077L3.0921 16.7538C2.90748 16.5692 2.5844 16.6154 2.4921 16.7077L2.39979 16.8C2.26133 16.9385 2.21517 17.0769 2.16902 17.2154L0.969012 22.2461Z" fill="currentColor"/>
</g>
</svg>
