<svg width="77" height="76" viewBox="0 0 77 76" fill="none" xmlns="http://www.w3.org/2000/svg">
<g id="close">
<rect id="Icon Background" x="0.5" width="76" height="76" rx="38" fill="currentColor"/>
<path id="close_2" d="M43.4108 37.8246L54.8985 26.3369C55.4246 25.8108 55.4246 25.0215 54.8985 24.4954L53.0569 22.6538C52.5308 22.1277 51.7415 22.1277 51.2154 22.6538L39.7277 34.1415C39.3769 34.4923 38.8508 34.4923 38.5 34.1415L27.0123 22.5662C26.4862 22.04 25.6969 22.04 25.1708 22.5662L23.3292 24.4077C22.8031 24.9338 22.8031 25.7231 23.3292 26.2492L34.8169 37.7369C35.1677 38.0877 35.1677 38.6138 34.8169 38.9646L23.2415 50.54C22.7154 51.0662 22.7154 51.8554 23.2415 52.3815L25.0831 54.2231C25.6092 54.7492 26.3985 54.7492 26.9246 54.2231L38.5 42.7354C38.8508 42.3846 39.3769 42.3846 39.7277 42.7354L51.2154 54.2231C51.7415 54.7492 52.5308 54.7492 53.0569 54.2231L54.8985 52.3815C55.4246 51.8554 55.4246 51.0662 54.8985 50.54L43.4108 39.0523C43.1477 38.7015 43.1477 38.1754 43.4108 37.8246Z" fill="white"/>
</g>
</svg>
