<svg width="16" height="16" viewBox="0 0 16 16" fill="none" xmlns="http://www.w3.org/2000/svg">
    <g id = "ForeCast">
        <path d="M13.8088 3.63699C13.8088 3.63699 13.0765 2.12622 11.4395 2.12622C9.80262 2.12622 9.02724 3.69237 9.02724 3.69237C8.70231 3.53979 8.34775 3.46068 7.98878 3.46068C7.62981 3.46068 7.27524 3.53979 6.95032 3.69237C6.95032 3.69237 6.19647 2.13853 4.55955 2.13853C2.92262 2.13853 2.19032 3.6493 2.19032 3.6493C2.19032 3.6493 0.658007 7.05545 0.61493 10.1201C0.571854 13.1847 2.60878 13.8739 3.57185 13.8739C4.62108 13.8739 7.09801 13.4339 6.97185 9.99391C7.05692 9.81769 7.19168 9.6702 7.35952 9.56961C7.52736 9.46901 7.72096 9.4197 7.91647 9.42776C8.13853 9.4127 8.36058 9.45725 8.55965 9.55678C8.75872 9.65632 8.92759 9.80723 9.04878 9.99391C8.92262 13.4339 11.3842 13.8739 12.4272 13.8739C13.3688 13.8739 15.4242 13.1385 15.3842 10.1201C15.3442 7.1016 13.8088 3.63699 13.8088 3.63699ZM3.76262 12.5324C3.40101 12.533 3.04734 12.4263 2.74637 12.2258C2.44541 12.0254 2.21067 11.7402 2.07186 11.4062C1.93306 11.0723 1.89642 10.7047 1.9666 10.35C2.03677 9.99527 2.2106 9.66932 2.46608 9.4134C2.72157 9.15749 3.04723 8.98311 3.40185 8.91234C3.75647 8.84157 4.12411 8.87758 4.45826 9.01582C4.79241 9.15406 5.07804 9.38832 5.279 9.68895C5.47997 9.98958 5.58724 10.3431 5.58724 10.7047C5.58724 11.1889 5.3951 11.6533 5.05301 11.996C4.71091 12.3386 4.24682 12.5316 3.76262 12.5324ZM12.2365 12.5324C11.8749 12.533 11.5212 12.4263 11.2202 12.2258C10.9193 12.0254 10.6845 11.7402 10.5457 11.4062C10.4069 11.0723 10.3703 10.7047 10.4404 10.35C10.5106 9.99527 10.6844 9.66932 10.9399 9.4134C11.1954 9.15749 11.5211 8.98311 11.8757 8.91234C12.2303 8.84157 12.598 8.87758 12.9321 9.01582C13.2663 9.15406 13.5519 9.38832 13.7528 9.68895C13.9538 9.98958 14.0611 10.3431 14.0611 10.7047C14.0611 11.1889 13.8689 11.6533 13.5269 11.996C13.1848 12.3386 12.7207 12.5316 12.2365 12.5324Z" fill="white"/>
    </g>
</svg>
