<svg width="14" height="16" viewBox="0 0 14 16" fill="none" xmlns="http://www.w3.org/2000/svg">
    <g id = 'FormIcon'>
        <path d="M10.8996 8.00025H3.0999C2.81273 8.00025 2.57992 8.23902 2.57992 8.53356V9.06688C2.57992 9.36142 2.81273 9.6002 3.0999 9.6002H10.8996C11.1868 9.6002 11.4196 9.36142 11.4196 9.06688V8.53356C11.4196 8.23902 11.1868 8.00025 10.8996 8.00025Z" fill="white"/>
        <path d="M9.85965 11.2001H3.0999C2.81273 11.2001 2.57992 11.4389 2.57992 11.7335V12.2668C2.57992 12.5613 2.81273 12.8001 3.0999 12.8001H9.85965C10.1468 12.8001 10.3796 12.5613 10.3796 12.2668V11.7335C10.3796 11.4389 10.1468 11.2001 9.85965 11.2001Z" fill="white"/>
        <path d="M10.3796 4.26703H13.1355C13.1836 4.26812 13.2314 4.25921 13.2761 4.24084C13.3207 4.22246 13.3613 4.195 13.3953 4.16012C13.4293 4.12523 13.4561 4.08364 13.474 4.03785C13.4919 3.99207 13.5006 3.94303 13.4995 3.89371C13.5021 3.84418 13.4942 3.79466 13.4762 3.74861C13.4582 3.70256 13.4307 3.66108 13.3955 3.62705L9.96365 0.107156C9.93047 0.0710697 9.89003 0.0428334 9.84513 0.0244125C9.80023 0.00599165 9.75195 -0.00217105 9.70366 0.000492562C9.65557 -0.000599897 9.60776 0.00831004 9.56312 0.0266845C9.51848 0.0450589 9.47793 0.0725173 9.44391 0.107404C9.4099 0.14229 9.38313 0.183881 9.36521 0.229668C9.3473 0.275455 9.33861 0.32449 9.33967 0.373814V3.20039C9.33967 3.48328 9.44924 3.75459 9.64427 3.95462C9.8393 4.15465 10.1038 4.26703 10.3796 4.26703Z" fill="white"/>
        <path d="M12.9795 5.86698H9.33967C8.92595 5.86698 8.52917 5.69841 8.23663 5.39836C7.94408 5.09831 7.77973 4.69136 7.77973 4.26703V0.533809C7.77973 0.392365 7.72495 0.256714 7.62743 0.156697C7.52992 0.056681 7.39766 0.000492335 7.25975 0.000492335H2.05994C1.64622 0.000492335 1.24944 0.169058 0.956896 0.469107C0.66435 0.769156 0.5 1.17611 0.5 1.60044V14.4C0.5 14.8244 0.66435 15.2313 0.956896 15.5314C1.24944 15.8314 1.64622 16 2.05994 16H11.9396C12.3533 16 12.7501 15.8314 13.0426 15.5314C13.3352 15.2313 13.4995 14.8244 13.4995 14.4V6.4003C13.4995 6.25885 13.4447 6.1232 13.3472 6.02318C13.2497 5.92317 13.1174 5.86698 12.9795 5.86698ZM2.57992 5.33366C2.57992 5.19222 2.63471 5.05657 2.73222 4.95655C2.82974 4.85653 2.962 4.80034 3.0999 4.80034H5.22663C5.36453 4.80034 5.49679 4.85653 5.59431 4.95655C5.69182 5.05657 5.74661 5.19222 5.74661 5.33366V5.86698C5.74661 6.00842 5.69182 6.14407 5.59431 6.24409C5.49679 6.34411 5.36453 6.4003 5.22663 6.4003H3.0999C3.03103 6.40252 2.96245 6.39024 2.89838 6.36422C2.83432 6.33821 2.77613 6.29901 2.7274 6.24903C2.67868 6.19906 2.64046 6.13938 2.61509 6.07367C2.58973 6.00796 2.57776 5.93762 2.57992 5.86698V5.33366ZM10.3796 12.2668C10.3796 12.4082 10.3249 12.5439 10.2273 12.6439C10.1298 12.7439 9.99756 12.8001 9.85965 12.8001H3.0999C2.962 12.8001 2.82974 12.7439 2.73222 12.6439C2.63471 12.5439 2.57992 12.4082 2.57992 12.2668V11.7335C2.57992 11.592 2.63471 11.4564 2.73222 11.3564C2.82974 11.2563 2.962 11.2001 3.0999 11.2001H9.85965C9.99756 11.2001 10.1298 11.2563 10.2273 11.3564C10.3249 11.4564 10.3796 11.592 10.3796 11.7335V12.2668ZM11.4196 9.06688C11.4196 9.20833 11.3648 9.34398 11.2673 9.44399C11.1698 9.54401 11.0375 9.6002 10.8996 9.6002H3.0999C2.962 9.6002 2.82974 9.54401 2.73222 9.44399C2.63471 9.34398 2.57992 9.20833 2.57992 9.06688V8.53356C2.57992 8.39212 2.63471 8.25647 2.73222 8.15645C2.82974 8.05643 2.962 8.00025 3.0999 8.00025H10.8996C11.0375 8.00025 11.1698 8.05643 11.2673 8.15645C11.3648 8.25647 11.4196 8.39212 11.4196 8.53356V9.06688Z" fill="white"/>
    </g>
</svg>
