<svg width="24" height="24" viewBox="0 0 24 24" fill="none" xmlns="http://www.w3.org/2000/svg">
<g id="Home">
<path id="Icon" fill-rule="evenodd" clip-rule="evenodd" d="M22.6154 12.4616H20.3077V22.6154C20.3077 22.8923 20.1231 23.0769 19.8461 23.0769H15.2308C14.9538 23.0769 14.7692 22.8923 14.7692 22.6154V14.7692H9.23076V22.6154C9.23076 22.8923 9.04615 23.0769 8.76923 23.0769H4.15384C3.87692 23.0769 3.6923 22.8923 3.6923 22.6154V12.4616H1.38461C1.2 12.4616 1.01538 12.3692 0.969228 12.1846C0.87692 12 0.923074 11.8154 1.06154 11.6769L11.6769 1.06156C11.8615 0.876942 12.1846 0.876942 12.3231 1.06156L22.9385 11.6769C23.0769 11.8154 23.0769 12 23.0308 12.1846C22.9846 12.3692 22.8 12.4616 22.6154 12.4616Z" fill="currentColor"/>
</g>
</svg>
