<svg width="16" height="16" viewBox="0 0 16 16" fill="none" xmlns="http://www.w3.org/2000/svg">
    <g id = 'Identity'>
        <path d="M13.9075 2.80005H2.09216C1.27985 2.80005 0.615234 3.46466 0.615234 4.27697V11.4154C0.615234 12.2277 1.27985 12.8924 2.09216 12.8924H13.9075C14.7199 12.8924 15.3845 12.2277 15.3845 11.4154V4.27697C15.3845 3.46466 14.7199 2.80005 13.9075 2.80005ZM7.65523 11.1693H3.42139C2.9537 11.1693 2.58447 10.6524 2.58447 10.16C2.60908 9.42159 3.37216 8.97851 4.18447 8.60928C4.75062 8.36313 4.82447 8.14159 4.82447 7.89543C4.82447 7.64928 4.67677 7.42774 4.47985 7.25543C4.15985 6.96005 3.96293 6.51697 3.96293 6.02466C3.96293 5.08928 4.52908 4.30159 5.5137 4.30159C6.49831 4.30159 7.06447 5.08928 7.06447 6.02466C7.06447 6.51697 6.89216 6.96005 6.54754 7.25543C6.35062 7.42774 6.20293 7.64928 6.20293 7.89543C6.20293 8.14159 6.27677 8.36313 6.84293 8.58466C7.65523 8.92928 8.41831 9.42159 8.44293 10.16C8.49216 10.6524 8.12293 11.1693 7.65523 11.1693ZM13.4152 9.4462C13.4152 9.71697 13.1937 9.93851 12.9229 9.93851H10.7075C10.4368 9.93851 10.2152 9.71697 10.2152 9.4462V8.70774C10.2152 8.43697 10.4368 8.21543 10.7075 8.21543H12.9229C13.1937 8.21543 13.4152 8.43697 13.4152 8.70774V9.4462ZM13.4152 6.73851C13.4152 7.00928 13.1937 7.23082 12.9229 7.23082H9.23062C8.95985 7.23082 8.73831 7.00928 8.73831 6.73851V6.00005C8.73831 5.72928 8.95985 5.50774 9.23062 5.50774H12.9229C13.1937 5.50774 13.4152 5.72928 13.4152 6.00005V6.73851Z" fill="white"/>
    </g>
</svg>
