<svg width="22" height="24" viewBox="0 0 22 24" fill="none" xmlns="http://www.w3.org/2000/svg">
<g id="image" clip-path="url(#clip0_249_1019)">
<g id="Group">
<path id="Vector" fill-rule="evenodd" clip-rule="evenodd" d="M2.42188 0.0158691C1.37151 0.0158691 0.519882 0.868244 0.519882 1.91862V22.109C0.519882 23.1601 1.37151 24.0114 2.42188 24.0114H19.5875C20.6379 24.0114 21.4903 23.1597 21.4903 22.109V7.63249L14.4013 0.0158691H2.42188Z" fill="#06A59A"/>
<path id="Vector_2" fill-rule="evenodd" clip-rule="evenodd" d="M21.4914 7.63207V8.00707H16.6918C16.6918 8.00707 14.3248 7.53457 14.3934 5.49194C14.3934 5.49194 14.4714 7.63207 16.6449 7.63207H21.4914Z" fill="#056764"/>
<path id="Vector_3" fill-rule="evenodd" clip-rule="evenodd" d="M14.4028 0V5.46038C14.4028 6.08138 14.8168 7.632 16.6918 7.632H21.4914L14.4028 0Z" fill="#ACF3E4"/>
</g>
<path id="Vector_4" fill-rule="evenodd" clip-rule="evenodd" d="M4.29463 20.1522V12.3132H12.1344V20.1522H4.29463ZM11.3443 13.0861H5.08513V17.8111H11.3443V13.0861ZM7.75063 16.2301L9.21651 14.2591L9.66913 15.0552L10.1923 14.8925L10.5613 17.0041H5.65551L6.96651 15.7591L7.75063 16.2301ZM6.30463 14.8651C5.96338 14.8651 5.68626 14.6071 5.68626 14.2884C5.68626 13.97 5.96338 13.7116 6.30463 13.7116C6.64663 13.7116 6.92338 13.97 6.92338 14.2884C6.92338 14.6071 6.64663 14.8651 6.30463 14.8651Z" fill="white"/>
</g>
<defs>
<clipPath id="clip0_249_1019">
<rect width="21" height="24" fill="white" transform="translate(0.5)"/>
</clipPath>
</defs>
</svg>
