<svg width="24" height="24" viewBox="0 0 24 24" fill="none" xmlns="http://www.w3.org/2000/svg">
<path id="Icon" fill-rule="evenodd" clip-rule="evenodd" d="M9.69225 22.3846V21C9.69225 20.6308 9.36918 20.3077 8.99995 20.3077H4.38459C4.01536 20.3077 3.69228 19.9846 3.69228 19.6154V4.38462C3.69228 4.01539 4.01536 3.69231 4.38459 3.69231H8.99995C9.36918 3.69231 9.69225 3.36923 9.69225 3V1.61539C9.69225 1.24616 9.36918 0.92308 8.99995 0.92308H2.76921C1.75383 0.92308 0.923065 1.75385 0.923065 2.76923V21.2308C0.923065 22.2462 1.75383 23.0769 2.76921 23.0769H8.99995C9.36918 23.0769 9.69225 22.7538 9.69225 22.3846ZM22.8923 12.4616C23.1692 12.1847 23.1692 11.7693 22.8923 11.4924L16.6615 5.26161C16.3846 4.98469 15.9692 4.98469 15.6923 5.26161L14.7231 6.23084C14.4461 6.50776 14.4461 6.92315 14.7231 7.20007L17.3077 9.78469C17.5846 10.0616 17.4 10.5693 16.9846 10.5693H7.15387C6.78464 10.5693 6.46157 10.8462 6.46157 11.2155V12.6001C6.46157 12.9693 6.78464 13.3385 7.15387 13.3385H16.9384C17.3538 13.3385 17.5384 13.8462 17.2615 14.1231L14.6769 16.7078C14.4 16.9847 14.4 17.4001 14.6769 17.677L15.6461 18.6462C15.9231 18.9231 16.3384 18.9231 16.6154 18.6462L22.8923 12.4616Z" fill="currentColor"/>
</svg>
