<svg width="21" height="20" viewBox="0 0 21 20" fill="none" xmlns="http://www.w3.org/2000/svg">
<path id="location" d="M19.9188 3.12201L13.9192 0.122217C13.7819 0.0606015 13.633 0.0287471 13.4825 0.0287471C13.332 0.0287471 13.1832 0.0606015 13.0459 0.122217L7.50295 2.91536L1.92001 0.122217C1.75822 0.0356515 1.57631 -0.00627081 1.39295 0.000758679C1.2096 0.00778817 1.03143 0.0635156 0.876747 0.162213C0.734376 0.249829 0.617353 0.373105 0.537262 0.519841C0.457171 0.666577 0.416789 0.831685 0.420112 0.998822V15.9978C0.420087 16.1796 0.470967 16.3577 0.566988 16.512C0.66301 16.6664 0.800334 16.7907 0.963407 16.871L6.96299 19.8708C7.10077 19.9329 7.25017 19.9651 7.40129 19.9651C7.55242 19.9651 7.70182 19.9329 7.8396 19.8708L13.4192 17.081L18.9622 19.8742C19.0994 19.9582 19.2579 20.001 19.4188 19.9975C19.6118 20.0002 19.8008 19.9419 19.9588 19.8308C20.1013 19.7439 20.2186 19.6214 20.2993 19.4752C20.3799 19.3291 20.4211 19.1645 20.4187 18.9976V3.99861C20.4278 3.82001 20.3855 3.64256 20.2969 3.48722C20.2083 3.33188 20.0771 3.20515 19.9188 3.12201ZM18.3355 5.02854V12.9547C18.3422 13.0579 18.3231 13.1611 18.2799 13.2551C18.2367 13.3491 18.1708 13.4309 18.0882 13.493C18.0055 13.5552 17.9086 13.5958 17.8064 13.6112C17.7041 13.6266 17.5996 13.6163 17.5023 13.5813C15.959 12.998 17.2089 10.4148 16.0857 8.99826C15.0424 7.70502 13.7092 9.0416 12.4193 6.9984C11.2094 5.02854 12.8359 3.62197 14.3358 2.87203C14.4275 2.83072 14.5269 2.80936 14.6275 2.80936C14.728 2.80936 14.8274 2.83072 14.9191 2.87203L18.0022 4.41525C18.109 4.47669 18.1967 4.56652 18.2556 4.67478C18.3144 4.78305 18.3421 4.9055 18.3355 5.02854ZM9.95945 16.6211C9.83954 16.6803 9.70519 16.7039 9.57228 16.6891C9.43938 16.6743 9.31349 16.6218 9.2095 16.5377C8.98705 16.3442 8.80596 16.1078 8.67709 15.8426C8.54822 15.5775 8.47423 15.289 8.45955 14.9945C8.45955 13.9946 6.793 14.3279 6.793 12.328C6.793 10.7048 4.87647 10.2848 3.24992 10.4515C3.1577 10.4636 3.06394 10.4551 2.97544 10.4264C2.88695 10.3978 2.80593 10.3498 2.73828 10.286C2.67062 10.2222 2.61802 10.1441 2.5843 10.0574C2.55057 9.97074 2.53657 9.87764 2.5433 9.78488V3.6953C2.53621 3.58452 2.55899 3.47386 2.60927 3.37489C2.65956 3.27591 2.73549 3.19226 2.82915 3.13266C2.9228 3.07306 3.03075 3.0397 3.1417 3.03607C3.25265 3.03244 3.36255 3.05866 3.4599 3.11201L7.04298 4.90522C7.07476 4.91014 7.10404 4.92536 7.12631 4.94855L7.24964 5.03187C8.74953 5.90848 8.45622 6.6151 7.83293 7.69835C7.12298 8.90494 6.833 7.69836 5.83307 7.36505C4.83314 7.03173 3.83321 7.69835 4.16652 8.36497C4.49983 9.0316 5.49976 8.36497 6.16638 9.0316C6.833 9.69822 6.833 10.6981 8.83286 10.0315C10.8327 9.36491 11.166 9.69822 11.8327 10.3648C12.0318 10.5606 12.19 10.794 12.2979 11.0515C12.4059 11.3091 12.4615 11.5855 12.4615 11.8647C12.4615 12.144 12.4059 12.4204 12.2979 12.6779C12.19 12.9354 12.0318 13.1689 11.8327 13.3646C11.2494 13.9479 10.9994 15.1978 10.7494 16.0311C10.7255 16.1198 10.6836 16.2025 10.6262 16.2742C10.5689 16.3459 10.4973 16.405 10.4161 16.4477L9.95945 16.6211Z" fill="currentColor"/>
</svg>
