<svg width="24" height="24" viewBox="0 0 24 24" fill="none" xmlns="http://www.w3.org/2000/svg">
<g id="Menu">
<path id="Icon" fill-rule="evenodd" clip-rule="evenodd" d="M21.4615 6.46143H2.53844C2.16921 6.46143 1.84613 6.13836 1.84613 5.76915V4.38459C1.84613 4.01537 2.16921 3.69231 2.53844 3.69231H21.4615C21.8307 3.69231 22.1538 4.01537 22.1538 4.38459V5.76915C22.1538 6.13836 21.8307 6.46143 21.4615 6.46143ZM21.4615 13.3377H2.53844C2.16921 13.3377 1.84613 13.0147 1.84613 12.6454V11.2609C1.84613 10.9378 2.16921 10.6148 2.53844 10.6148H21.4615C21.8307 10.6148 22.1538 10.9378 22.1538 11.307V12.6916C22.1538 13.0147 21.8307 13.3377 21.4615 13.3377ZM21.4615 20.3078H2.53844C2.16921 20.3078 1.84613 19.9847 1.84613 19.6155V18.231C1.84613 17.8617 2.16921 17.5387 2.53844 17.5387H21.4615C21.8307 17.5387 22.1538 17.8617 22.1538 18.231V19.6155C22.1538 19.9847 21.8307 20.3078 21.4615 20.3078Z" fill="currentColor"/>
</g>
</svg>
