<svg width="16" height="16" viewBox="0 0 16 16" fill="none" xmlns="http://www.w3.org/2000/svg">
<g id="Minus">
<path id="Icon" fill-rule="evenodd" clip-rule="evenodd" d="M7.99985 0.615479C3.93831 0.615479 0.615234 3.93856 0.615234 8.00009C0.615234 12.0616 3.93831 15.3847 7.99985 15.3847C12.0614 15.3847 15.3845 12.0616 15.3845 8.00009C15.3845 3.93856 12.0614 0.615479 7.99985 0.615479ZM11.6614 8.52305C11.6306 8.73844 11.446 8.92305 11.1998 8.92305H4.79984C4.55369 8.92305 4.36907 8.76921 4.3383 8.52305C4.30753 8.15382 4.30753 7.81536 4.3383 7.4769C4.36907 7.26151 4.55369 7.0769 4.79984 7.0769H11.1998C11.446 7.0769 11.6306 7.26151 11.6614 7.4769C11.6922 7.84613 11.6922 8.18459 11.6614 8.52305Z" fill="currentColor"/>
</g>
</svg>
