<svg width="22" height="22" viewBox="0 0 22 22" fill="none" xmlns="http://www.w3.org/2000/svg">
    <g Id = "New">
        <path fill-rule="evenodd" clip-rule="evenodd" d="M12.8457 12.3846H20.4611C20.8303 12.3846 21.1534 12.0615 21.1534 11.6923V10.3077C21.1534 9.93844 20.8303 9.61536 20.4611 9.61536H12.8457C12.5688 9.61536 12.3842 9.43075 12.3842 9.15382V1.53844C12.3842 1.16921 12.0611 0.84613 11.6919 0.84613H10.3072C9.93801 0.84613 9.61493 1.16921 9.61493 1.53844V9.15382C9.61493 9.43075 9.43032 9.61536 9.1534 9.61536H1.53801C1.16878 9.61536 0.845703 9.93844 0.845703 10.3077V11.6923C0.845703 12.0615 1.16878 12.3846 1.53801 12.3846H9.1534C9.43032 12.3846 9.61493 12.5692 9.61493 12.8461V20.4615C9.61493 20.8307 9.93801 21.1538 10.3072 21.1538H11.6919C12.0611 21.1538 12.3842 20.8307 12.3842 20.4615V12.8461C12.3842 12.5692 12.5688 12.3846 12.8457 12.3846Z" fill="currentColor"/>
    </g>
</svg>
