<svg width="25" height="25" viewBox="0 0 54 54" fill="none" xmlns="http://www.w3.org/2000/svg">
    <mask id="mask0_9049_219" style="mask-type:alpha" maskUnits="userSpaceOnUse" x="0" y="0" width="54" height="54">
        <rect x="0.5" y="0.692383" width="53" height="53" fill="#D9D9D9"/>
    </mask>
    <g mask="url(#mask0_9049_219)">
        <path d="M37.1837 28.8486H12.0937C11.6237 28.8486 11.2303 28.6899 10.9134 28.3727C10.5961 28.0558 10.4375 27.6623 10.4375 27.1923C10.4375 26.7223 10.5961 26.3288 10.9134 26.012C11.2303 25.6947 11.6237 25.5361 12.0937 25.5361H37.1837L29.9133 18.2657C29.585 17.937 29.4229 17.5526 29.427 17.1124C29.4314 16.6722 29.5935 16.2807 29.9133 15.9381C30.256 15.5958 30.6495 15.4189 31.0937 15.4075C31.5383 15.3961 31.9319 15.5617 32.2746 15.9044L42.1652 25.795C42.372 26.0018 42.5178 26.2199 42.6024 26.4492C42.6874 26.6785 42.73 26.9262 42.73 27.1923C42.73 27.4584 42.6874 27.7061 42.6024 27.9354C42.5178 28.1647 42.372 28.3828 42.1652 28.5896L32.2746 38.4802C31.9459 38.8085 31.556 38.9706 31.1047 38.9666C30.6531 38.9622 30.256 38.7888 29.9133 38.4465C29.5935 38.1039 29.4279 37.7159 29.4165 37.2827C29.4051 36.8495 29.5707 36.4616 29.9133 36.1189L37.1837 28.8486Z" fill="#1D1D1D"/>
    </g>
</svg>
