<svg width="25" height="25" viewBox="0 0 54 54" fill="none" xmlns="http://www.w3.org/2000/svg">
    <mask id="mask0_9049_200" style="mask-type:alpha" maskUnits="userSpaceOnUse" x="0" y="0" width="54" height="54">
        <rect x="0.833496" y="0.692383" width="53" height="53" fill="#D9D9D9"/>
    </mask>
    <g mask="url(#mask0_9049_200)">
        <path d="M37.5172 28.8486H12.4272C11.9572 28.8486 11.5638 28.6899 11.2469 28.3727C10.9296 28.0558 10.771 27.6623 10.771 27.1923C10.771 26.7223 10.9296 26.3288 11.2469 26.012C11.5638 25.6947 11.9572 25.5361 12.4272 25.5361H37.5172L30.2468 18.2657C29.9185 17.937 29.7564 17.5526 29.7605 17.1124C29.7649 16.6722 29.927 16.2807 30.2468 15.9381C30.5895 15.5958 30.983 15.4189 31.4272 15.4075C31.8718 15.3961 32.2654 15.5617 32.6081 15.9044L42.4987 25.795C42.7055 26.0018 42.8513 26.2199 42.9359 26.4492C43.0209 26.6785 43.0635 26.9262 43.0635 27.1923C43.0635 27.4584 43.0209 27.7061 42.9359 27.9354C42.8513 28.1647 42.7055 28.3828 42.4987 28.5896L32.6081 38.4802C32.2794 38.8085 31.8895 38.9706 31.4382 38.9666C30.9866 38.9622 30.5895 38.7888 30.2468 38.4465C29.927 38.1039 29.7614 37.7159 29.75 37.2827C29.7386 36.8495 29.9042 36.4616 30.2468 36.1189L37.5172 28.8486Z" fill="#FFFCFC"/>
    </g>
</svg>