<svg width="24" height="24" viewBox="0 0 24 24" fill="none" xmlns="http://www.w3.org/2000/svg">
<g id="Offline-cached">
<path id="Icon" fill-rule="evenodd" clip-rule="evenodd" d="M17.8154 9.41539C17.3539 6.41539 14.7231 4.1077 11.5846 4.1077C8.07694 4.1077 5.26155 6.92308 5.26155 10.4308C5.26155 10.5692 5.26155 10.7538 5.3077 10.8923C3.00001 11.0769 1.20001 13.0154 1.20001 15.3231C1.20001 17.8154 3.18463 19.8 5.67694 19.8H10.9846L7.24617 16.0615C7.06155 15.8769 7.06155 15.6462 7.24617 15.4615L7.84617 14.8615C8.03078 14.6769 8.26155 14.6769 8.44617 14.8615L10.0616 16.4769C10.2462 16.6615 10.5692 16.5231 10.5692 16.2923V10.0615C10.5692 9.87693 10.8 9.64616 11.0308 9.64616H11.9077C12.1385 9.64616 12.3231 9.83077 12.3231 10.0615V16.2462C12.3231 16.5231 12.6923 16.6154 12.8308 16.4308L14.4462 14.8154C14.6308 14.6308 14.8616 14.6308 15.0462 14.8154L15.6462 15.4154C15.8308 15.6 15.8308 15.8308 15.6462 16.0154L12 19.8H17.6769C20.4923 19.7538 22.7539 17.4462 22.7539 14.5846C22.8 11.7692 20.5846 9.5077 17.8154 9.41539Z" fill="currentColor"/>
</g>
</svg>
