<svg width="31" height="24" viewBox="0 0 31 24" fill="none" xmlns="http://www.w3.org/2000/svg">
<g id="Group 24">
<g id="Group 26">
<g id="funding_requirement">
<path d="M12.3122 12.6701V22.1762C12.3122 22.4123 12.468 22.5681 12.7041 22.5681C12.7845 22.5681 12.8599 22.5681 12.9001 22.5279C14.7892 21.4778 18.6479 18.6441 18.6479 18.4783C18.6479 17.3327 18.9745 16.5188 19.1403 16.0264C19.3061 15.534 19.7332 14.8808 19.9593 14.5543C20.1803 14.2277 20.4516 13.9011 20.7782 13.5745C21.1048 13.2479 21.758 12.7555 21.758 12.7555V7.64579C21.758 7.40964 21.6022 7.25389 21.3661 7.25389C21.2857 7.25389 21.2103 7.25389 21.1701 7.29408L12.7091 12.0069C12.473 12.1225 12.3172 12.3988 12.3172 12.6701H12.3122ZM11.5234 10.0223L20.0246 5.30947C20.2205 5.19391 20.2607 4.95776 20.1401 4.76182C20.0999 4.72162 20.0597 4.68143 20.0246 4.64626C18.1354 3.59617 12.3474 0.320302 12.3474 0.320302C11.5988 -0.106767 10.6542 -0.106767 9.90556 0.320302C9.90556 0.320302 4.11752 3.55095 2.22837 4.64626C2.03242 4.76182 1.99223 4.99796 2.10779 5.19391C2.14798 5.2341 2.18818 5.2743 2.22837 5.30947L10.7296 10.0223C10.9657 10.1379 11.2822 10.1379 11.5184 10.0223H11.5234ZM9.55386 12.0069L1.09287 7.29408C0.896923 7.17852 0.660779 7.25389 0.540195 7.44984C0.5 7.49003 0.5 7.5654 0.5 7.64579V16.1369C0.5 16.9961 0.972288 17.7748 1.72091 18.2019C1.72091 18.2019 7.46876 21.4326 9.35791 22.4877C9.55386 22.6032 9.79 22.5279 9.91059 22.3319C9.95078 22.2515 9.95078 22.1762 9.95078 22.136V12.6701C9.95078 12.3988 9.79502 12.1225 9.55888 12.0069H9.55386Z" fill="currentColor"/>
<path d="M25.0941 12.8862C22.0142 12.8862 19.5372 15.3632 19.5372 18.4431C19.5372 21.523 22.0142 24 25.0941 24C28.174 24 30.651 21.523 30.651 18.4431C30.651 15.3632 28.174 12.8862 25.0941 12.8862Z" fill="currentColor"/>
</g>
<path id="Icon" fill-rule="evenodd" clip-rule="evenodd" d="M25.5741 18.6746H27.5367C27.6319 18.6746 27.7151 18.5913 27.7151 18.4962V18.1393C27.7151 18.0442 27.6319 17.9609 27.5367 17.9609H25.5741C25.5027 17.9609 25.4551 17.9133 25.4551 17.842V15.8793C25.4551 15.7842 25.3719 15.7009 25.2767 15.7009H24.9199C24.8247 15.7009 24.7414 15.7842 24.7414 15.8793V17.842C24.7414 17.9133 24.6939 17.9609 24.6225 17.9609H22.6599C22.5647 17.9609 22.4814 18.0442 22.4814 18.1393V18.4962C22.4814 18.5913 22.5647 18.6746 22.6599 18.6746H24.6225C24.6939 18.6746 24.7414 18.7222 24.7414 18.7936V20.7562C24.7414 20.8513 24.8247 20.9346 24.9199 20.9346H25.2767C25.3719 20.9346 25.4551 20.8513 25.4551 20.7562V18.7936C25.4551 18.7222 25.5027 18.6746 25.5741 18.6746Z" fill="white"/>
</g>
</g>
</svg>
