<svg width="25" height="24" viewBox="0 0 25 24" fill="none" xmlns="http://www.w3.org/2000/svg">
<g id="People">
<path id="Icon" fill-rule="evenodd" clip-rule="evenodd" d="M20.0512 10.2919C18.7589 9.78421 18.5743 9.27654 18.5743 8.76887C18.5743 8.26121 18.9436 7.75354 19.4051 7.38432C20.1897 6.7382 20.6051 5.76902 20.6051 4.70753C20.6051 2.67686 19.2666 0.923096 16.9128 0.923096C14.7435 0.923096 13.4512 2.39995 13.2666 4.19986C13.2666 4.38447 13.3589 4.52292 13.4974 4.61523C15.2512 5.72287 16.3128 7.66123 16.3128 10.015C16.3128 11.7687 15.6205 13.3379 14.3743 14.4455C14.282 14.5378 14.282 14.7224 14.3743 14.8147C14.6974 15.0455 15.4358 15.3686 15.8974 15.5993C16.0358 15.6455 16.1282 15.6916 16.2666 15.6916H21.8513C22.9128 15.6916 23.7436 14.8147 23.7436 13.8456V13.5686C23.7436 11.9533 21.9897 11.0765 20.0512 10.2919ZM13.8668 16.708C12.2975 16.0618 12.0668 15.508 12.0668 14.9081C12.0668 14.3081 12.5283 13.7081 13.036 13.2466C13.9591 12.462 14.4668 11.3544 14.4668 10.0621C14.4668 7.66225 12.8975 5.58542 10.036 5.58542C7.22058 5.58542 5.60519 7.66225 5.60519 10.0621C5.60519 11.3544 6.11288 12.462 7.03596 13.2466C7.54366 13.7081 8.0052 14.3081 8.0052 14.9081C8.0052 15.508 7.77443 16.108 6.15903 16.708C3.85133 17.631 1.58978 18.6925 1.58978 20.6309V21.2308C1.58978 22.2462 2.42056 23.0769 3.4821 23.0769H16.2668C17.3283 23.0769 18.2052 22.2462 18.2052 21.2308V20.5847C18.2052 18.6925 16.1745 17.631 13.8668 16.708Z" fill="currentColor"/>
</g>
</svg>
