<svg width="16" height="16" viewBox="0 0 16 16" fill="none" xmlns="http://www.w3.org/2000/svg">
<g id="Plus">
<path id="Icon" fill-rule="evenodd" clip-rule="evenodd" d="M13.2307 2.7692C10.3384 -0.0923376 5.66151 -0.0923376 2.7692 2.7692C-0.0923378 5.66151 -0.0923378 10.3384 2.7692 13.2307C5.66151 16.123 10.3384 16.123 13.2 13.2307C16.0923 10.3384 16.0923 5.66151 13.2307 2.7692ZM12.9231 8.61557C12.9231 8.80019 12.8 8.92326 12.6154 8.92326H9.23076C9.07691 8.92326 8.92306 9.07711 8.92306 9.23096V12.6156C8.92306 12.7694 8.76922 12.9233 8.61537 12.9233H7.3846C7.19999 12.9233 7.07691 12.8002 7.07691 12.6156V9.23096C7.07691 9.04634 6.95383 8.92326 6.76922 8.92326H3.3846C3.19999 8.92326 3.07691 8.80019 3.07691 8.61557V7.3848C3.07691 7.23096 3.23076 7.07711 3.3846 7.07711H6.76922C6.95383 7.07711 7.07691 6.95403 7.07691 6.76942V3.3848C7.07691 3.23096 7.23076 3.07711 7.3846 3.07711H8.61537C8.76922 3.07711 8.92306 3.20019 8.92306 3.3848V6.76942C8.92306 6.95403 9.04614 7.07711 9.23076 7.07711H12.6154C12.7692 7.07711 12.9231 7.23096 12.9231 7.3848V8.61557Z" fill="currentColor"/>
</g>
</svg>
