<svg width="16" height="16" viewBox="0 0 16 16" fill="none" xmlns="http://www.w3.org/2000/svg">
    <g id = "Product">
        <path d="M7.38481 10.8709C7.44591 10.8704 7.50505 10.8924 7.551 10.9327C7.59695 10.9729 7.6265 11.0287 7.63404 11.0893V14.6339C7.63427 14.8268 7.56026 15.0124 7.42736 15.1522C7.29445 15.292 7.11284 15.3752 6.9202 15.3847H1.86789C1.67723 15.3844 1.49377 15.3118 1.35446 15.1817C1.21516 15.0515 1.13035 14.8734 1.11712 14.6832V11.1232C1.11665 11.0621 1.13864 11.0029 1.17892 10.957C1.2192 10.911 1.27495 10.8815 1.33558 10.8739H7.38481V10.8709ZM14.6494 10.8709C14.7103 10.8711 14.7691 10.8933 14.8149 10.9334C14.8607 10.9736 14.8905 11.029 14.8987 11.0893V14.6339C14.8989 14.8273 14.8244 15.0133 14.6909 15.1532C14.5573 15.2931 14.3749 15.376 14.1817 15.3847H9.12943C8.93908 15.3843 8.75599 15.3117 8.61718 15.1814C8.47837 15.0512 8.39421 14.8731 8.38173 14.6832V11.1232C8.38127 11.0621 8.40326 11.0029 8.44354 10.957C8.48381 10.911 8.53956 10.8815 8.6002 10.8739H14.634L14.6494 10.8709ZM5.44327 11.9078L5.41558 11.9293L4.0002 13.4862L3.35096 12.8709C3.31935 12.8394 3.27772 12.8201 3.23332 12.8161C3.18892 12.8122 3.14454 12.8239 3.10789 12.8493L3.08327 12.8709L2.81558 13.1109C2.7993 13.1234 2.78576 13.1392 2.7758 13.1572C2.76583 13.1751 2.75965 13.195 2.75763 13.2154C2.75562 13.2359 2.75781 13.2566 2.76407 13.2761C2.77033 13.2957 2.78053 13.3138 2.79404 13.3293L2.81558 13.3539L3.73866 14.2247C3.81004 14.2951 3.90609 14.3349 4.00635 14.3355C4.05626 14.3369 4.10591 14.3278 4.15205 14.3087C4.19819 14.2897 4.23976 14.261 4.27404 14.2247L5.9725 12.4278C5.99793 12.3972 6.01334 12.3596 6.01665 12.3199C6.01995 12.2803 6.01098 12.2406 5.99096 12.2062L5.9725 12.1847L5.70481 11.9447C5.67488 11.9053 5.63061 11.8794 5.58164 11.8725C5.53266 11.8655 5.48294 11.8782 5.44327 11.9078ZM12.7079 11.9078L12.6802 11.9293L11.2463 13.4862L10.5971 12.8709C10.566 12.8397 10.5249 12.8204 10.481 12.8165C10.4372 12.8126 10.3933 12.8242 10.3571 12.8493L10.3294 12.8709L10.0617 13.1109C10.0457 13.1236 10.0324 13.1396 10.0227 13.1577C10.013 13.1758 10.0071 13.1957 10.0054 13.2161C10.0037 13.2366 10.0062 13.2572 10.0127 13.2766C10.0192 13.2961 10.0296 13.314 10.0433 13.3293L10.0617 13.3539L10.9848 14.2247C11.0562 14.2951 11.1522 14.3349 11.2525 14.3355C11.3024 14.3371 11.3522 14.3281 11.3983 14.309C11.4445 14.2899 11.486 14.2612 11.5202 14.2247L13.231 12.4124C13.2528 12.3796 13.2644 12.341 13.2644 12.3016C13.2644 12.2622 13.2528 12.2237 13.231 12.1909V12.1693L12.9633 11.9293C12.9314 11.894 12.8872 11.8722 12.8398 11.8682C12.7924 11.8642 12.7453 11.8783 12.7079 11.9078ZM6.93558 8.36317C7.11915 8.37007 7.29328 8.44629 7.42288 8.57647C7.55249 8.70665 7.62794 8.88111 7.63404 9.06471V9.86779C7.63506 9.92662 7.61523 9.98391 7.57806 10.0295C7.54089 10.0751 7.48879 10.1061 7.43096 10.117H0.849426C0.790883 10.1158 0.734795 10.0933 0.691725 10.0536C0.648655 10.0139 0.621573 9.95988 0.61558 9.90163V9.11702C0.609906 8.93226 0.674309 8.7522 0.795865 8.61295C0.917421 8.47371 1.08714 8.38558 1.27096 8.36625H6.93558V8.36317ZM14.6833 8.36317C14.8674 8.36931 15.0423 8.4452 15.1725 8.57545C15.3028 8.70571 15.3787 8.8806 15.3848 9.06471V9.86779C15.3858 9.92662 15.366 9.98391 15.3288 10.0295C15.2917 10.0751 15.2396 10.1061 15.1817 10.117H8.59712C8.53863 10.115 8.4829 10.0917 8.4404 10.0514C8.3979 10.0112 8.37157 9.95684 8.36635 9.89855V9.11702C8.36068 8.93226 8.42508 8.7522 8.54663 8.61295C8.66819 8.47371 8.83791 8.38558 9.02173 8.36625H14.6833V8.36317ZM10.991 3.1324C11.0515 3.13269 11.1099 3.15502 11.1552 3.19522C11.2005 3.23543 11.2296 3.29076 11.2371 3.35086V6.88317C11.2375 7.07404 11.1652 7.25791 11.0349 7.39737C10.9046 7.53683 10.726 7.62142 10.5356 7.63394H5.49866C5.30771 7.63284 5.12424 7.55962 4.98501 7.42895C4.84578 7.29828 4.76108 7.11981 4.74789 6.92932V3.38471C4.74817 3.32414 4.7705 3.26575 4.81071 3.22044C4.85091 3.17514 4.90624 3.14603 4.96635 3.13856H11.0033L10.991 3.1324ZM9.06173 4.16932L9.03712 4.19086L7.60327 5.74779L6.95404 5.1324C6.92292 5.10122 6.88183 5.08197 6.83795 5.07803C6.79408 5.0741 6.75021 5.08572 6.71404 5.11086L6.68635 5.1324L6.41866 5.3724C6.40274 5.38522 6.38954 5.40108 6.37982 5.41906C6.37011 5.43704 6.36407 5.45678 6.36207 5.47711C6.36006 5.49745 6.36213 5.51799 6.36815 5.53752C6.37416 5.55705 6.38401 5.57518 6.39712 5.59086L6.41866 5.61548L7.34173 6.48317C7.37653 6.519 7.41814 6.54753 7.4641 6.56708C7.51007 6.58663 7.55948 6.59681 7.60943 6.59702C7.65962 6.5985 7.70954 6.58909 7.75575 6.56943C7.80196 6.54978 7.84337 6.52035 7.87712 6.48317L9.57866 4.68932C9.60282 4.65805 9.61718 4.62032 9.61992 4.58089C9.62266 4.54146 9.61366 4.5021 9.59404 4.46779L9.57866 4.44625L9.31096 4.20625C9.28285 4.17242 9.24391 4.14935 9.20073 4.14094C9.15755 4.13252 9.1128 4.13929 9.07404 4.16009L9.06173 4.16932ZM11.0033 0.615479C11.1936 0.615849 11.3767 0.688503 11.5155 0.818743C11.6543 0.948983 11.7385 1.12708 11.751 1.31702V2.12009C11.7501 2.18083 11.7277 2.23928 11.6877 2.28496C11.6476 2.33064 11.5926 2.36055 11.5325 2.36932H4.49866C4.43802 2.36989 4.37926 2.34832 4.33339 2.30868C4.28751 2.26903 4.25766 2.21401 4.24943 2.15394V1.36625C4.24896 1.17587 4.32084 0.992428 4.45052 0.853044C4.58019 0.713659 4.75797 0.628742 4.94789 0.615479H11.0033Z" fill="white"/>
    </g>
</svg>
