<svg width="10" height="10" viewBox="0 0 10 10" fill="none" xmlns="http://www.w3.org/2000/svg">
<path id="Resize Icon" fill-rule="evenodd" clip-rule="evenodd" d="M9.35355 1.35355C9.54882 1.15829 9.54882 0.841709 9.35355 0.646447C9.15829 0.451184 8.84171 0.451184 8.64645 0.646447L0.646447 8.64645C0.451184 8.84171 0.451184 9.15829 0.646447 9.35355C0.841709 9.54882 1.15829 9.54882 1.35355 9.35355L9.35355 1.35355ZM9.35355 5.35355C9.54882 5.15829 9.54882 4.84171 9.35355 4.64645C9.15829 4.45118 8.84171 4.45118 8.64645 4.64645L4.64645 8.64645C4.45118 8.84171 4.45118 9.15829 4.64645 9.35355C4.84171 9.54882 5.15829 9.54882 5.35355 9.35355L9.35355 5.35355Z" fill="currentColor"/>
</svg>
