<svg width="16" height="16" viewBox="0 0 16 16" fill="none" xmlns="http://www.w3.org/2000/svg">
    <g id = 'InputSearch'>
        <path fill-rule="evenodd" clip-rule="evenodd" d="M15.2649 13.93L11.1429 9.83997C11.9734 8.67138 12.4041 7.19526 12.1888 5.62689C11.8196 2.98219 9.66632 0.891027 6.99006 0.645008C3.36019 0.275979 0.284031 3.35122 0.65317 7.01075C0.899263 9.65545 2.99105 11.8389 5.63655 12.2079C7.20539 12.4232 8.68195 11.9926 9.85089 11.1623L13.9422 15.2524C14.1268 15.4369 14.4036 15.4369 14.5882 15.2524L15.2342 14.6066C15.4187 14.4221 15.4187 14.1145 15.2649 13.93ZM2.46809 6.42676C2.46809 4.24334 4.25227 2.45971 6.43634 2.45971C8.62042 2.45971 10.4046 4.24334 10.4046 6.42676C10.4046 8.61018 8.62042 10.3938 6.43634 10.3938C4.25227 10.3938 2.46809 8.64093 2.46809 6.42676Z" fill="#AEAEAE"/>
    </g>
</svg>
