<svg width="17" height="16" viewBox="0 0 17 16" fill="none" xmlns="http://www.w3.org/2000/svg">
<g id="select_check_box">
<mask id="mask0_5734_10578" style="mask-type:alpha" maskUnits="userSpaceOnUse" x="0" y="0" width="17" height="16">
<rect id="Bounding box" x="0.175781" width="16" height="16" fill="#D9D9D9"/>
</mask>
<g mask="url(#mask0_5734_10578)">
<path id="select_check_box_2" d="M3.50911 14C3.14245 14 2.82856 13.8694 2.56745 13.6083C2.30634 13.3472 2.17578 13.0333 2.17578 12.6667V3.33333C2.17578 2.96667 2.30634 2.65278 2.56745 2.39167C2.82856 2.13056 3.14245 2 3.50911 2H11.8258C12.0147 2 12.173 2.06389 12.3008 2.19167C12.4286 2.31944 12.4924 2.47778 12.4924 2.66667C12.4924 2.85556 12.4286 3.01389 12.3008 3.14167C12.173 3.26944 12.0147 3.33333 11.8258 3.33333H3.50911V12.6667H12.8424V8.33333C12.8424 8.14444 12.9063 7.98611 13.0341 7.85833C13.1619 7.73056 13.3202 7.66667 13.5091 7.66667C13.698 7.66667 13.8563 7.73056 13.9841 7.85833C14.1119 7.98611 14.1758 8.14444 14.1758 8.33333V12.6667C14.1758 13.0333 14.0452 13.3472 13.7841 13.6083C13.523 13.8694 13.2091 14 12.8424 14H3.50911ZM7.85912 9.46667L13.5258 3.8C13.648 3.67778 13.798 3.61667 13.9758 3.61667C14.1536 3.61667 14.3091 3.67778 14.4424 3.8C14.5758 3.92222 14.6424 4.07778 14.6424 4.26667C14.6424 4.45556 14.5758 4.61667 14.4424 4.75L8.32578 10.8667C8.19245 11 8.03689 11.0667 7.85912 11.0667C7.68134 11.0667 7.52578 11 7.39245 10.8667L4.55911 8.03333C4.43689 7.91111 4.37578 7.75556 4.37578 7.56667C4.37578 7.37778 4.43689 7.22222 4.55911 7.1C4.68134 6.97778 4.83689 6.91667 5.02578 6.91667C5.21467 6.91667 5.37023 6.97778 5.49245 7.1L7.85912 9.46667Z" fill="currentColor"/>
</g>
</g>
</svg>
