<svg width="16" height="16" viewBox="0 0 16 14" fill="none" xmlns="http://www.w3.org/2000/svg">
    <g id = "Store">
        <path fill-rule="evenodd" clip-rule="evenodd" d="M6.18431 6.99989H13.5382C13.7535 6.99989 13.9689 6.84604 13.9997 6.63065L15.3535 1.89218C15.4459 1.55372 15.1997 1.2768 14.892 1.2768H3.53816L3.35354 0.569106C3.26123 0.230644 2.95354 0.0152588 2.64585 0.0152588H1.41508C1.01508 0.0152588 0.645847 0.322952 0.615078 0.722952C0.584309 1.15372 0.95354 1.52295 1.35354 1.52295H2.06123L4.39969 9.43066C4.492 9.76912 4.76893 9.98451 5.10739 9.98451H13.7843C14.1843 9.98451 14.5535 9.67681 14.5843 9.27681C14.6151 8.84604 14.2459 8.47681 13.8459 8.47681H6.21508C5.87662 8.47681 5.5997 8.26143 5.50739 7.95373V7.92296C5.35354 7.46143 5.72277 6.99989 6.18431 6.99989ZM6.33827 13.9539C7.01801 13.9539 7.56904 13.4028 7.56904 12.7231C7.56904 12.0433 7.01801 11.4923 6.33827 11.4923C5.65854 11.4923 5.1075 12.0433 5.1075 12.7231C5.1075 13.4028 5.65854 13.9539 6.33827 13.9539ZM13.569 12.7231C13.569 13.4028 13.018 13.9539 12.3383 13.9539C11.6585 13.9539 11.1075 13.4028 11.1075 12.7231C11.1075 12.0433 11.6585 11.4923 12.3383 11.4923C13.018 11.4923 13.569 12.0433 13.569 12.7231Z" fill="white"/>
    </g>
</svg>
