<svg width="71" height="72" viewBox="0 0 71 72" fill="none" xmlns="http://www.w3.org/2000/svg">
<path id="Icon" fill-rule="evenodd" clip-rule="evenodd" d="M35.5 0.92308C16.0616 0.92308 0.423096 16.5615 0.423096 36C0.423096 55.4385 16.0616 71.0769 35.5 71.0769C54.9385 71.0769 70.577 55.4385 70.577 36C70.577 16.5615 54.9385 0.92308 35.5 0.92308ZM55.0854 27.2322L32.7239 49.8861C31.8469 50.763 30.3854 50.763 29.5085 49.8861L17.2316 37.463C16.3546 36.5861 16.3546 35.1245 17.2316 34.2476L20.4469 31.0322C21.3239 30.1553 22.7854 30.1553 23.6623 31.0322L30.0931 37.6091C30.6777 38.1937 31.7008 38.1937 32.2854 37.6091L48.6546 20.6553C49.5316 19.7784 50.9931 19.7784 51.87 20.6553L55.0854 23.8707C56.1085 24.7476 56.1085 26.2091 55.0854 27.2322V27.2322Z" fill="currentColor"/>
</svg>
