<svg width="97" height="98" viewBox="0 0 97 98" fill="none" xmlns="http://www.w3.org/2000/svg">
<path fill-rule="evenodd" clip-rule="evenodd" d="M72.0038 38.5539C70.1384 26.4289 59.5057 17.1019 46.8211 17.1019C32.6442 17.1019 21.2654 28.4808 21.2654 42.6577C21.2654 43.2173 21.2654 43.9635 21.4519 44.5231C12.125 45.2692 4.84998 53.1039 4.84998 62.4308C4.84998 72.5038 12.8711 80.525 22.9442 80.525H44.3961L29.2865 65.4154C28.5404 64.6692 28.5404 63.7365 29.2865 62.9904L31.7115 60.5654C32.4577 59.8192 33.3904 59.8192 34.1365 60.5654L40.6654 67.0942C41.4115 67.8404 42.7173 67.2808 42.7173 66.3481V41.1654C42.7173 40.4192 43.65 39.4865 44.5827 39.4865H48.1269C49.0596 39.4865 49.8057 40.2327 49.8057 41.1654V66.1615C49.8057 67.2808 51.2981 67.6539 51.8577 66.9077L58.3865 60.3789C59.1327 59.6327 60.0654 59.6327 60.8115 60.3789L63.2365 62.8039C63.9827 63.55 63.9827 64.4827 63.2365 65.2289L48.5 80.525H71.4442C82.8231 80.3385 91.9634 71.0115 91.9634 59.4462C92.15 48.0673 83.1961 38.9269 72.0038 38.5539Z" fill="currentColor"/>
<mask id="path-2-outside-1_6320_15352" maskUnits="userSpaceOnUse" x="57.0276" y="12.4615" width="38" height="33" fill="black">
<rect fill="white" x="57.0276" y="12.4615" width="38" height="33"/>
<path fill-rule="evenodd" clip-rule="evenodd" d="M91.6308 39.1539L77.5385 16.3846C76.8 15.1539 75.2 15.1539 74.4615 16.3846L60.3692 39.1539C59.5077 40.5692 60.3692 42.5385 61.9077 42.5385H90.0923C91.6308 42.5385 92.5538 40.5692 91.6308 39.1539ZM75.9999 37.6148C74.9537 37.6148 74.1537 36.8148 74.1537 35.7687C74.1537 34.7225 74.9537 33.9225 75.9999 33.9225C77.046 33.9225 77.846 34.7225 77.846 35.7687C77.846 36.8148 77.046 37.6148 75.9999 37.6148ZM77.846 32.077C77.846 32.4462 77.5999 32.6923 77.2306 32.6923H74.7691C74.3999 32.6923 74.1537 32.4462 74.1537 32.077V24.077C74.1537 23.7077 74.3999 23.4616 74.7691 23.4616H77.2306C77.5999 23.4616 77.846 23.7077 77.846 24.077V32.077Z"/>
</mask>
<path fill-rule="evenodd" clip-rule="evenodd" d="M91.6308 39.1539L77.5385 16.3846C76.8 15.1539 75.2 15.1539 74.4615 16.3846L60.3692 39.1539C59.5077 40.5692 60.3692 42.5385 61.9077 42.5385H90.0923C91.6308 42.5385 92.5538 40.5692 91.6308 39.1539ZM75.9999 37.6148C74.9537 37.6148 74.1537 36.8148 74.1537 35.7687C74.1537 34.7225 74.9537 33.9225 75.9999 33.9225C77.046 33.9225 77.846 34.7225 77.846 35.7687C77.846 36.8148 77.046 37.6148 75.9999 37.6148ZM77.846 32.077C77.846 32.4462 77.5999 32.6923 77.2306 32.6923H74.7691C74.3999 32.6923 74.1537 32.4462 74.1537 32.077V24.077C74.1537 23.7077 74.3999 23.4616 74.7691 23.4616H77.2306C77.5999 23.4616 77.846 23.7077 77.846 24.077V32.077Z" fill="#D6431A"/>
<path d="M91.6308 39.1539L89.4245 40.5193L89.4407 40.5455L89.4575 40.5712L91.6308 39.1539ZM77.5385 16.3846L75.3136 17.7195L75.3228 17.7349L75.3322 17.7501L77.5385 16.3846ZM74.4615 16.3846L76.6677 17.7501L76.6772 17.7349L76.6864 17.7195L74.4615 16.3846ZM60.3692 39.1539L58.163 37.7884L58.1579 37.7966L58.1529 37.8048L60.3692 39.1539ZM93.837 37.7884L79.7447 15.0192L75.3322 17.7501L89.4245 40.5193L93.837 37.7884ZM79.7633 15.0497C78.9462 13.6878 77.5361 12.867 76 12.867C74.4639 12.867 73.0538 13.6878 72.2367 15.0497L76.6864 17.7195C76.6077 17.8506 76.3669 18.0561 76 18.0561C75.6331 18.0561 75.3923 17.8506 75.3136 17.7195L79.7633 15.0497ZM72.2553 15.0192L58.163 37.7884L62.5754 40.5193L76.6677 17.7501L72.2553 15.0192ZM58.1529 37.8048C57.238 39.3079 57.2542 41.0627 57.8709 42.4383C58.4922 43.8244 59.8987 45.1331 61.9077 45.1331V39.9439C62.1015 39.9439 62.2893 40.0127 62.4253 40.1119C62.5466 40.2003 62.5924 40.2853 62.606 40.3156C62.6227 40.3527 62.6389 40.4152 62.5855 40.5029L58.1529 37.8048ZM61.9077 45.1331H90.0923V39.9439H61.9077V45.1331ZM90.0923 45.1331C92.0794 45.1331 93.5036 43.8492 94.142 42.4608C94.7826 41.0673 94.802 39.2667 93.804 37.7365L89.4575 40.5712C89.3826 40.4564 89.4019 40.3481 89.4272 40.2931C89.4434 40.2579 89.4886 40.1797 89.6001 40.0997C89.7243 40.0107 89.9012 39.9439 90.0923 39.9439V45.1331ZM75.9999 35.0202C76.1554 35.0202 76.3566 35.0869 76.5191 35.2494C76.6816 35.4119 76.7483 35.6131 76.7483 35.7687H71.5591C71.5591 38.2478 73.5207 40.2094 75.9999 40.2094V35.0202ZM76.7483 35.7687C76.7483 35.9242 76.6816 36.1255 76.5191 36.2879C76.3566 36.4504 76.1554 36.5171 75.9999 36.5171V31.3279C73.5207 31.3279 71.5591 33.2896 71.5591 35.7687H76.7483ZM75.9999 36.5171C75.8443 36.5171 75.6431 36.4504 75.4806 36.2879C75.3181 36.1255 75.2514 35.9242 75.2514 35.7687H80.4406C80.4406 33.2896 78.479 31.3279 75.9999 31.3279V36.5171ZM75.2514 35.7687C75.2514 35.6131 75.3181 35.4119 75.4806 35.2494C75.6431 35.0869 75.8443 35.0202 75.9999 35.0202V40.2094C78.479 40.2094 80.4406 38.2478 80.4406 35.7687H75.2514ZM75.2514 32.077C75.2514 31.672 75.3977 31.1328 75.8421 30.6885C76.2865 30.2441 76.8256 30.0978 77.2306 30.0978V35.2869C78.0049 35.2869 78.8517 35.0175 79.5114 34.3578C80.1712 33.698 80.4406 32.8512 80.4406 32.077H75.2514ZM77.2306 30.0978H74.7691V35.2869H77.2306V30.0978ZM74.7691 30.0978C75.1741 30.0978 75.7132 30.2441 76.1576 30.6885C76.602 31.1328 76.7483 31.672 76.7483 32.077H71.5591C71.5591 32.8512 71.8285 33.698 72.4883 34.3578C73.148 35.0175 73.9949 35.2869 74.7691 35.2869V30.0978ZM76.7483 32.077V24.077H71.5591V32.077H76.7483ZM76.7483 24.077C76.7483 24.482 76.602 25.0211 76.1576 25.4655C75.7132 25.9098 75.1741 26.0562 74.7691 26.0562V20.867C73.9949 20.867 73.148 21.1364 72.4883 21.7962C71.8285 22.4559 71.5591 23.3027 71.5591 24.077H76.7483ZM74.7691 26.0562H77.2306V20.867H74.7691V26.0562ZM77.2306 26.0562C76.8256 26.0562 76.2865 25.9098 75.8421 25.4655C75.3977 25.0211 75.2514 24.482 75.2514 24.077H80.4406C80.4406 23.3027 80.1712 22.4559 79.5114 21.7962C78.8517 21.1364 78.0049 20.867 77.2306 20.867V26.0562ZM75.2514 24.077V32.077H80.4406V24.077H75.2514Z" fill="white" mask="url(#path-2-outside-1_6320_15352)"/>
</svg>
