<svg width="25" height="25" viewBox="0 0 53 54" fill="none" xmlns="http://www.w3.org/2000/svg">
    <mask id="mask0_9049_296" style="mask-type:alpha" maskUnits="userSpaceOnUse" x="0" y="0" width="53" height="54">
        <rect y="0.192383" width="53" height="53" fill="#D9D9D9"/>
    </mask>
    <g mask="url(#mask0_9049_296)">
        <path d="M16.1379 45.4624C15.04 45.4624 14.1002 45.0715 13.3185 44.2898C12.5367 43.508 12.1458 42.5682 12.1458 41.4703V13.4416H11.5937C11.1245 13.4416 10.7312 13.2827 10.4139 12.9651C10.0963 12.6475 9.9375 12.254 9.9375 11.7847C9.9375 11.3151 10.0963 10.9218 10.4139 10.6049C10.7312 10.2877 11.1245 10.1291 11.5937 10.1291H19.875C19.875 9.58838 20.0655 9.12757 20.4464 8.74664C20.827 8.36607 21.2876 8.17578 21.8283 8.17578H31.1717C31.7124 8.17578 32.173 8.36607 32.5536 8.74664C32.9345 9.12757 33.125 9.58838 33.125 10.1291H41.4062C41.8755 10.1291 42.2688 10.2879 42.5861 10.6055C42.9037 10.9231 43.0625 11.3166 43.0625 11.7859C43.0625 12.2555 42.9037 12.6488 42.5861 12.9657C42.2688 13.2829 41.8755 13.4416 41.4062 13.4416H40.8542V41.4703C40.8542 42.5682 40.4633 43.508 39.6815 44.2898C38.8998 45.0715 37.96 45.4624 36.8621 45.4624H16.1379ZM37.5417 13.4416H15.4583V41.4703C15.4583 41.6687 15.522 41.8315 15.6494 41.9589C15.7767 42.0862 15.9396 42.1499 16.1379 42.1499H36.8621C37.0604 42.1499 37.2233 42.0862 37.3506 41.9589C37.478 41.8315 37.5417 41.6687 37.5417 41.4703V13.4416ZM22.424 37.7332C22.8932 37.7332 23.2865 37.5746 23.6038 37.2573C23.9207 36.9397 24.0791 36.5462 24.0791 36.077V19.5145C24.0791 19.0452 23.9203 18.6517 23.6027 18.3341C23.2854 18.0169 22.892 17.8582 22.4223 17.8582C21.953 17.8582 21.5598 18.0169 21.2425 18.3341C20.9256 18.6517 20.7672 19.0452 20.7672 19.5145V36.077C20.7672 36.5462 20.9258 36.9397 21.2431 37.2573C21.5607 37.5746 21.9543 37.7332 22.424 37.7332ZM30.5777 37.7332C31.047 37.7332 31.4402 37.5746 31.7575 37.2573C32.0744 36.9397 32.2328 36.5462 32.2328 36.077V19.5145C32.2328 19.0452 32.0742 18.6517 31.7569 18.3341C31.4393 18.0169 31.0457 17.8582 30.576 17.8582C30.1068 17.8582 29.7135 18.0169 29.3962 18.3341C29.0793 18.6517 28.9209 19.0452 28.9209 19.5145V36.077C28.9209 36.5462 29.0797 36.9397 29.3973 37.2573C29.7146 37.5746 30.108 37.7332 30.5777 37.7332Z" fill="#FFFCFC"/>
    </g>
</svg>