<svg width="25" height="25" viewBox="0 0 54 54" fill="none" xmlns="http://www.w3.org/2000/svg">
<mask id="mask0_9049_284" style="mask-type:alpha" maskUnits="userSpaceOnUse" x="0" y="0" width="54" height="54">
<rect x="0.25" y="0.692383" width="53" height="53" fill="#D9D9D9"/>
</mask>
<g mask="url(#mask0_9049_284)">
<path d="M16.3879 45.9624C15.29 45.9624 14.3502 45.5715 13.5685 44.7898C12.7867 44.008 12.3958 43.0682 12.3958 41.9703V13.9416H11.8437C11.3745 13.9416 10.9812 13.7827 10.6639 13.4651C10.3463 13.1475 10.1875 12.754 10.1875 12.2847C10.1875 11.8151 10.3463 11.4218 10.6639 11.1049C10.9812 10.7877 11.3745 10.6291 11.8437 10.6291H20.125C20.125 10.0884 20.3155 9.62757 20.6964 9.24664C21.077 8.86607 21.5376 8.67578 22.0783 8.67578H31.4217C31.9624 8.67578 32.423 8.86607 32.8036 9.24664C33.1845 9.62757 33.375 10.0884 33.375 10.6291H41.6562C42.1255 10.6291 42.5188 10.7879 42.8361 11.1055C43.1537 11.4231 43.3125 11.8166 43.3125 12.2859C43.3125 12.7555 43.1537 13.1488 42.8361 13.4657C42.5188 13.7829 42.1255 13.9416 41.6562 13.9416H41.1042V41.9703C41.1042 43.0682 40.7133 44.008 39.9315 44.7898C39.1498 45.5715 38.21 45.9624 37.1121 45.9624H16.3879ZM37.7917 13.9416H15.7083V41.9703C15.7083 42.1687 15.772 42.3315 15.8994 42.4589C16.0267 42.5862 16.1896 42.6499 16.3879 42.6499H37.1121C37.3104 42.6499 37.4733 42.5862 37.6006 42.4589C37.728 42.3315 37.7917 42.1687 37.7917 41.9703V13.9416ZM22.674 38.2332C23.1432 38.2332 23.5365 38.0746 23.8538 37.7573C24.1707 37.4397 24.3291 37.0462 24.3291 36.577V20.0145C24.3291 19.5452 24.1703 19.1517 23.8527 18.8341C23.5354 18.5169 23.142 18.3582 22.6723 18.3582C22.203 18.3582 21.8098 18.5169 21.4925 18.8341C21.1756 19.1517 21.0172 19.5452 21.0172 20.0145V36.577C21.0172 37.0462 21.1758 37.4397 21.4931 37.7573C21.8107 38.0746 22.2043 38.2332 22.674 38.2332ZM30.8277 38.2332C31.297 38.2332 31.6902 38.0746 32.0075 37.7573C32.3244 37.4397 32.4828 37.0462 32.4828 36.577V20.0145C32.4828 19.5452 32.3242 19.1517 32.0069 18.8341C31.6893 18.5169 31.2957 18.3582 30.826 18.3582C30.3568 18.3582 29.9635 18.5169 29.6462 18.8341C29.3293 19.1517 29.1709 19.5452 29.1709 20.0145V36.577C29.1709 37.0462 29.3297 37.4397 29.6473 37.7573C29.9646 38.0746 30.358 38.2332 30.8277 38.2332Z" fill="#D71969"/>
</g>
</svg>
