<svg width="49" height="48" viewBox="0 0 49 48" fill="none" xmlns="http://www.w3.org/2000/svg">
<g id="Union">
<path fill-rule="evenodd" clip-rule="evenodd" d="M6.85586 28.6014C6.85586 29.4753 7.5709 30.1903 8.44483 30.1903H22.5072C21.6332 32.1766 21.1566 34.3217 21.1566 36.5462H5.2669C2.6451 36.5462 0.5 34.4011 0.5 31.7793V4.7669C0.5 2.1451 2.6451 0 5.2669 0H30.6903C33.3121 0 35.4572 2.1451 35.4572 4.7669V20.736C31.4848 21.1332 27.9097 23.04 25.3673 25.8207C25.0495 25.5823 24.7317 25.4234 24.3345 25.4234H8.44483C7.5709 25.4234 6.85586 26.1385 6.85586 27.0124V28.6014ZM8.44483 6.35586C7.5709 6.35586 6.85586 7.0709 6.85586 7.94483V9.53379C6.85586 10.4077 7.5709 11.1228 8.44483 11.1228H24.3345C25.2084 11.1228 25.9235 10.4077 25.9235 9.53379V7.94483C25.9235 7.0709 25.2084 6.35586 24.3345 6.35586H8.44483ZM8.44483 15.8897C7.5709 15.8897 6.85586 16.6047 6.85586 17.4786V19.0676C6.85586 19.9415 7.5709 20.6566 8.44483 20.6566H27.5124C28.3863 20.6566 29.1014 19.9415 29.1014 19.0676V17.4786C29.1014 16.6047 28.3863 15.8897 27.5124 15.8897H8.44483Z" fill="currentColor"/>
<path d="M35.5107 31.86C33.7783 31.86 32.363 33.2738 32.363 35.0013C32.363 36.7542 33.7762 38.1425 35.5107 38.1425C37.2431 38.1425 38.6584 36.7287 38.6584 35.0013C38.6584 33.2738 37.2431 31.86 35.5107 31.86Z" fill="currentColor"/>
<path fill-rule="evenodd" clip-rule="evenodd" d="M36.9138 48C43.3127 48 48.5 42.8127 48.5 36.4138C48.5 30.0149 43.3127 24.8276 36.9138 24.8276C30.5149 24.8276 25.3276 30.0149 25.3276 36.4138C25.3276 42.8127 30.5149 48 36.9138 48ZM36.0473 29.4083C38.6422 29.6474 40.7257 31.6702 41.0832 34.2274C41.2741 35.6159 40.9403 36.9299 40.268 38.0061L43.7393 41.4453L43.7519 41.4603C44.0205 41.7821 44.0236 42.3005 43.6989 42.6247L43.1192 43.2034C42.792 43.53 42.2819 43.53 41.9547 43.2034L38.5223 39.7772C37.4439 40.4491 36.128 40.7828 34.7366 40.5922C32.1743 40.2353 30.1479 38.1269 29.9083 35.5648C29.5519 32.027 32.5296 29.0524 36.0473 29.4083Z" fill="currentColor"/>
</g>
</svg>
