<svg width="24" height="24" viewBox="0 0 24 24" fill="none" xmlns="http://www.w3.org/2000/svg">
<path id="Icon" fill-rule="evenodd" clip-rule="evenodd" d="M22.3846 14.307H21C20.6308 14.307 20.3077 14.6763 20.3077 14.9994V19.6151C20.3077 19.9843 19.9846 20.3074 19.6154 20.3074H4.38462C4.01538 20.3074 3.69231 19.9843 3.69231 19.6151V14.9994C3.69231 14.6763 3.36923 14.307 3 14.307H1.61538C1.24615 14.307 0.923077 14.6763 0.923077 14.9994V21.2306C0.923077 22.246 1.75385 23.0768 2.76923 23.0768H21.2308C22.2462 23.0768 23.0769 22.246 23.0769 21.2306V14.9994C23.0769 14.6763 22.7538 14.307 22.3846 14.307ZM12.4616 1.10761C12.1847 0.830667 11.7693 0.830667 11.4924 1.10761L5.26161 7.33878C4.98468 7.61572 4.98468 8.03114 5.26161 8.30808L6.23084 9.27737C6.50776 9.55431 6.92314 9.55431 7.20007 9.27737L9.78468 6.69259C10.0616 6.41565 10.6155 6.60027 10.6155 7.01569V16.8009C10.6155 17.1702 10.8924 17.4933 11.2616 17.4933H12.6462C13.0155 17.4933 13.3847 17.124 13.3847 16.8009V7.06184C13.3847 6.64643 13.8462 6.4618 14.1693 6.73874L16.7539 9.32353C17.0308 9.60047 17.4462 9.60047 17.7231 9.32353L18.6924 8.35423C18.9693 8.07729 18.9693 7.66188 18.6924 7.38494L12.4616 1.10761Z" fill="currentColor"/>
</svg>
