<svg width="16" height="16" viewBox="0 0 16 16" fill="none" xmlns="http://www.w3.org/2000/svg">
    <g id = "UserBlock">
        <path fill-rule="evenodd" clip-rule="evenodd" d="M6.76386 11.3783C6.76386 10.5478 7.04101 9.5943 7.47213 8.85611C7.99564 7.93338 8.58073 7.56428 9.04265 6.88761C9.81251 5.74957 9.96648 4.11941 9.47377 2.8891C8.98106 1.62803 7.81087 0.889845 6.45591 0.920602C5.10095 0.95136 3.99235 1.78182 3.56123 3.04289C3.06852 4.42699 3.28408 6.08791 4.39268 7.13368C4.8546 7.56428 5.28572 8.24096 5.03936 8.88687C4.8238 9.50202 4.08474 9.77885 3.56123 10.0249C2.36024 10.5478 0.912904 11.286 0.666548 12.7008C0.420192 13.8696 1.22085 15.0692 2.48342 15.0692H7.71849C7.96484 15.0692 8.11881 14.7616 7.96484 14.5771C7.19498 13.6851 6.76386 12.547 6.76386 11.3783ZM14.3085 8.76383C12.8612 7.31821 10.5208 7.31821 9.07344 8.76383C7.6261 10.2094 7.6261 12.547 9.07344 13.9927C10.5208 15.4383 12.8612 15.4383 14.3085 13.9927C15.7558 12.547 15.7558 10.2094 14.3085 8.76383ZM9.93575 9.62518C10.7672 8.79472 11.999 8.67169 12.9536 9.25608L9.56622 12.6394C8.98112 11.6859 9.1043 10.4556 9.93575 9.62518ZM13.4461 13.1314C12.6146 13.9311 11.3828 14.0542 10.4282 13.5313L13.8156 10.1479C14.3699 11.0706 14.2467 12.301 13.4461 13.1314Z" fill="white"/>
    </g>
</svg>
