<svg width="32" height="33" viewBox="0 0 32 33" fill="none" xmlns="http://www.w3.org/2000/svg">
<g id="Warning">
<path id="Icon" fill-rule="evenodd" clip-rule="evenodd" d="M31.6308 26.6539L17.5385 3.88462C16.8 2.65386 15.2 2.65386 14.4615 3.88462L0.369217 26.6539C-0.492322 28.0692 0.369217 30.0385 1.90768 30.0385H30.0923C31.6308 30.0385 32.5538 28.0692 31.6308 26.6539ZM15.9999 25.1148C14.9537 25.1148 14.1537 24.3148 14.1537 23.2687C14.1537 22.2225 14.9537 21.4225 15.9999 21.4225C17.046 21.4225 17.846 22.2225 17.846 23.2687C17.846 24.3148 17.046 25.1148 15.9999 25.1148ZM17.846 19.577C17.846 19.9462 17.5999 20.1923 17.2306 20.1923H14.7691C14.3999 20.1923 14.1537 19.9462 14.1537 19.577V11.577C14.1537 11.2077 14.3999 10.9616 14.7691 10.9616H17.2306C17.5999 10.9616 17.846 11.2077 17.846 11.577V19.577Z" fill="currentColor"/>
</g>
</svg>
